# xmcd
#
# Track frame offsets: 
#        150
#        15698
#        29861
#        45177
#        59352
#        70783
#        82748
#        96766
#        117731
#        138940
#        152620
#        170930
#        189791
#        206183
#        225493
#        236171
#        249605
#        267933
#        282967
#        299280
#        313342
#
# Disc length: 4352 seconds
#
# Revision: 0
# Processed by: cddbd v1.5.2PL0 Copyright (c) Steve Scherf et al.
# Submitted via: ExactAudioCopy v1.0b1
#
DISCID=3310fe15
DTITLE=Various Artist - Big City Blues - CD 1 - Modern Blues 
DYEAR=2009
DGENRE=Blues
TTITLE0=Done It All - Floy, Martin Scheffler, Linek Band
TTITLE1=Soul Girl - Floy, Martin Scheffler, Linek Band
TTITLE2=Love, Love, Love - Floy, Martin Scheffler, Linek Band
TTITLE3=Sweet Attraction - Floy, Martin Scheffler, Linek Band
TTITLE4=Home Sweet Home - Floy, Martin Scheffler, Linek Band
TTITLE5=New Generation - Floy, Martin Scheffler, Linek Band
TTITLE6=Successful - Floy, Martin Scheffler, Linek Band
TTITLE7=Big City Blues - Floy, Martin Scheffler, Linek Band
TTITLE8=Hoping For Love - Floy, Martin Scheffler, Linek Band
TTITLE9=My Car - Floy, Martin Scheffler, Linek Band
TTITLE10=Survival Of The Fittest - Floy, Martin Scheffler, Linek Band
TTITLE11=I Love My Man - Floy, Martin Scheffler, Linek Band
TTITLE12=Angry lady - Floy, Martin Scheffler, Linek Band
TTITLE13=Angel - Floy, Martin Scheffler, Linek Band
TTITLE14=Living Fast - Floy, Martin Scheffler, Linek Band
TTITLE15=My Man - Floy, Martin Scheffler, Abi Wallenstein, Linek Band
TTITLE16=I'm Ready - Floy, Martin Scheffler, Linek Band
TTITLE17=Hope - Floy, Martin Scheffler, Abi Wallenstein, Linek Band
TTITLE18=Travelling - Floy, Martin Scheffler, Linek Band
TTITLE19=Got The Blues - Floy, Martin Scheffler, Abi Wallenstein, Line
TTITLE19=k Band
TTITLE20=Gentleman - Floy, Martin Scheffler, Linek Band
EXTD=
EXTT0=
EXTT1=
EXTT2=
EXTT3=
EXTT4=
EXTT5=
EXTT6=
EXTT7=
EXTT8=
EXTT9=
EXTT10=
EXTT11=
EXTT12=
EXTT13=
EXTT14=
EXTT15=
EXTT16=
EXTT17=
EXTT18=
EXTT19=
EXTT20=
PLAYORDER=
